<svg width="14" height="10" viewBox="0 0 14 10" fill="none" xmlns="http://www.w3.org/2000/svg">
<path d="M5.35421 9.27956C5.22295 9.27983 5.09292 9.25417 4.97159 9.20406C4.85027 9.15395 4.74003 9.08038 4.64721 8.98756L0.405213 4.74456C0.30964 4.65238 0.233381 4.54209 0.180888 4.42013C0.128394 4.29816 0.100717 4.16696 0.0994704 4.03418C0.0982236 3.9014 0.123433 3.76971 0.173627 3.64678C0.223821 3.52385 0.297994 3.41214 0.39182 3.31819C0.485645 3.22423 0.597243 3.1499 0.720103 3.09953C0.842962 3.04916 0.974622 3.02377 1.1074 3.02482C1.24018 3.02588 1.37142 3.05337 1.49346 3.1057C1.6155 3.15802 1.7259 3.23412 1.81821 3.32956L5.35321 6.86456L11.7182 0.501562C11.9057 0.313921 12.1601 0.208453 12.4254 0.208359C12.6906 0.208265 12.9451 0.313553 13.1327 0.501061C13.3204 0.68857 13.4258 0.942938 13.4259 1.20821C13.426 1.47348 13.3207 1.72792 13.1332 1.91556L6.06121 8.98756C5.96839 9.08038 5.85816 9.15395 5.73683 9.20406C5.61551 9.25417 5.48548 9.27983 5.35421 9.27956Z" fill="#2FAB73"/>
</svg>
