<svg width="16" height="17" viewBox="0 0 16 17" fill="none" xmlns="http://www.w3.org/2000/svg">
<path d="M14.189 6.41778L10.2218 5.84122L8.44834 2.2459C8.39991 2.14747 8.32022 2.06778 8.22178 2.01934C7.97491 1.89747 7.67491 1.99903 7.55147 2.2459L5.77803 5.84122L1.81084 6.41778C1.70147 6.4334 1.60147 6.48497 1.52491 6.56309C1.43235 6.65823 1.38134 6.78622 1.3831 6.91894C1.38486 7.05166 1.43924 7.17825 1.53428 7.2709L4.40459 10.0693L3.72647 14.0209C3.71057 14.1128 3.72074 14.2074 3.75583 14.2938C3.79093 14.3802 3.84953 14.4551 3.92501 14.5099C4.00049 14.5647 4.08982 14.5973 4.18288 14.604C4.27593 14.6106 4.36898 14.591 4.45147 14.5475L7.99991 12.6818L11.5483 14.5475C11.6452 14.599 11.7577 14.6162 11.8655 14.5975C12.1374 14.5506 12.3202 14.2928 12.2733 14.0209L11.5952 10.0693L14.4655 7.2709C14.5437 7.19434 14.5952 7.09434 14.6108 6.98497C14.653 6.71153 14.4624 6.4584 14.189 6.41778Z" fill="#FEA250"/>
</svg>
